<svg xmlns="http://www.w3.org/2000/svg" fill="none" viewBox="-0.75 -0.75 16 16" stroke="#000000" aria-hidden="true" id="Folder--Streamline-Heroicons-Outline" height="16" width="16">
  <desc>
    Folder Streamline Icon: https://streamlinehq.com
  </desc>
  <path stroke-linecap="round" stroke-linejoin="round" d="M1.359375 7.703124999999999V7.25A1.359375 1.359375 0 0 1 2.71875 5.890625h9.0625A1.359375 1.359375 0 0 1 13.140625 7.25v0.453125m-5.250208333333333 -3.890833333333333 -1.2808333333333333 -1.2808333333333333a0.90625 0.90625 0 0 0 -0.6410208333333333 -0.2658333333333333H2.71875A1.359375 1.359375 0 0 0 1.359375 3.625v7.25a1.359375 1.359375 0 0 0 1.359375 1.359375h9.0625A1.359375 1.359375 0 0 0 13.140625 10.875V5.4375a1.359375 1.359375 0 0 0 -1.359375 -1.359375h-3.2498124999999995a0.90625 0.90625 0 0 1 -0.6404166666666666 -0.2658333333333333Z" stroke-width="1.5"></path>
</svg>