<?xml version="1.0" encoding="UTF-8" standalone="no"?><!DOCTYPE svg PUBLIC "-//W3C//DTD SVG 1.1//EN" "http://www.w3.org/Graphics/SVG/1.1/DTD/svg11.dtd"><svg width="100%" height="100%" viewBox="0 0 67 67" version="1.1" xmlns="http://www.w3.org/2000/svg" xmlns:xlink="http://www.w3.org/1999/xlink" xml:space="preserve" xmlns:serif="http://www.serif.com/" style="fill-rule:evenodd;clip-rule:evenodd;stroke-linecap:round;stroke-linejoin:round;"><path d="M8.789,35.221l0,-1.888c0,-3.107 2.557,-5.664 5.664,-5.664l37.76,0c3.107,0 5.664,2.557 5.664,5.664l0,1.888m-21.876,-16.212l-5.337,-5.337c-0.708,-0.709 -1.669,-1.107 -2.671,-1.108l-13.541,0c-3.107,-0 -5.664,2.557 -5.664,5.664l0,30.208c0,3.107 2.557,5.664 5.664,5.664l37.76,0c3.107,0 5.664,-2.557 5.664,-5.664l0,-22.656c0,-3.107 -2.557,-5.664 -5.664,-5.664l-13.541,0c-1.001,-0.001 -1.961,-0.4 -2.668,-1.108l-0.003,0Z" style="fill:none;fill-rule:nonzero;stroke:#000;stroke-width:6.25px;"/></svg>